<svg width="116" height="26" viewBox="0 0 116 26" fill="none" xmlns="http://www.w3.org/2000/svg">
<path d="M8.0479 3.59961C9.69487 3.59961 11.1247 3.87398 12.3375 4.42297C13.5505 4.97196 14.4847 5.75101 15.1397 6.76036C15.795 7.76971 16.1224 8.96504 16.1224 10.3461C16.1224 11.7095 15.795 12.9004 15.1397 13.9187C14.4847 14.9367 13.5505 15.716 12.3375 16.256C11.1247 16.7961 9.69487 17.0662 8.0479 17.0662H4.30281V22.1924H0V3.59961H8.0479ZM7.80888 13.5601C9.10156 13.5601 10.0843 13.281 10.7572 12.7233C11.43 12.1656 11.7666 11.3731 11.7666 10.3461C11.7666 9.30141 11.43 8.5002 10.7572 7.94225C10.0843 7.38454 9.10156 7.10569 7.80888 7.10569H4.30281V13.5601H7.80888Z" fill="black"/>
<path d="M30.492 18.2083H21.8598L20.2128 22.1924H15.8037L24.0909 3.59961H28.3406L36.6542 22.1924H32.139L30.492 18.2083ZM29.1376 14.9412L26.1892 7.82274L23.2409 14.9412H29.1376Z" fill="black"/>
<path d="M52.2454 12.5241C53.3077 12.8605 54.1401 13.4227 54.7421 14.2107C55.3441 14.9987 55.6451 15.9682 55.6451 17.1192C55.6451 18.7483 55.012 20.0011 53.7459 20.8775C52.4799 21.7542 50.634 22.1924 48.208 22.1924H38.5928V3.59961H47.6767C49.9433 3.59961 51.6832 4.03333 52.8959 4.90101C54.1089 5.76869 54.7154 6.94634 54.7154 8.43372C54.7154 9.33676 54.4986 10.1424 54.0646 10.8508C53.6309 11.5591 53.0244 12.1168 52.2454 12.5241ZM42.8692 6.84003V11.2227H47.1456C48.208 11.2227 49.0137 11.0368 49.5626 10.6648C50.1116 10.2931 50.386 9.74409 50.386 9.01807C50.386 8.29206 50.1116 7.74755 49.5626 7.38454C49.0137 7.02153 48.208 6.84003 47.1456 6.84003H42.8692ZM47.8893 18.952C49.0226 18.952 49.8769 18.766 50.4525 18.3943C51.0279 18.0223 51.3157 17.4469 51.3157 16.6676C51.3157 15.1272 50.1734 14.3569 47.8893 14.3569H42.8692V18.952H47.8893Z" fill="black"/>
<path d="M58.9131 3.59961H63.2159V18.6863H72.5388V22.1924H58.9131V3.59961Z" fill="black"/>
<path d="M94.9902 6.54688H98.5229L98.2307 13.0544H95.2559L94.9902 6.54688Z" fill="black"/>
<path d="M108.111 22.1386C106.642 22.1386 105.221 21.9394 103.848 21.5408C102.476 21.1425 101.374 20.6246 100.542 19.9872L102.002 16.7465C102.799 17.3309 103.746 17.8002 104.844 18.1545C105.942 18.5085 107.04 18.6856 108.138 18.6856C109.36 18.6856 110.263 18.5041 110.847 18.141C111.431 17.778 111.724 17.2955 111.724 16.6935C111.724 16.2508 111.551 15.8833 111.206 15.5913C110.86 15.299 110.418 15.0644 109.878 14.8874C109.338 14.7102 108.607 14.5155 107.686 14.3031C106.27 13.9665 105.11 13.6301 104.207 13.2937C103.304 12.9571 102.529 12.4171 101.883 11.6734C101.236 10.9297 100.913 9.93804 100.913 8.69863C100.913 7.61833 101.206 6.6401 101.79 5.7637C102.374 4.88706 103.255 4.19193 104.433 3.67853C105.61 3.1649 107.049 2.9082 108.749 2.9082C109.935 2.9082 111.095 3.04987 112.228 3.3332C113.362 3.61654 114.353 4.02386 115.203 4.55494L113.875 7.82199C112.157 6.84824 110.44 6.36125 108.722 6.36125C107.518 6.36125 106.628 6.55595 106.053 6.94559C105.477 7.33524 105.19 7.84863 105.19 8.48601C105.19 9.12363 105.522 9.59719 106.186 9.90716C106.85 10.2169 107.863 10.5224 109.227 10.8234C110.643 11.16 111.803 11.4964 112.706 11.8327C113.61 12.1694 114.384 12.7004 115.03 13.4264C115.677 14.1525 116 15.1352 116 16.3748C116 17.4372 115.703 18.4067 115.11 19.2831C114.517 20.1597 113.627 20.8546 112.441 21.3683C111.254 21.8819 109.811 22.1386 108.111 22.1386Z" fill="black"/>
<path fill-rule="evenodd" clip-rule="evenodd" d="M81.5628 14.6172C81.7255 14.1599 81.5935 13.6496 81.2293 13.3285C80.8653 13.0072 80.3427 12.9398 79.9092 13.1583C77.7503 14.2021 76.2485 16.4457 76.2485 19.0374C76.2485 21.6291 77.7503 23.8727 79.9066 24.9212C80.3423 25.1404 80.8672 25.0727 81.2328 24.75C81.5984 24.4276 81.7311 23.9151 81.5678 23.4557C81.1265 22.1432 80.8389 20.6236 80.8389 19.0374C80.8389 17.4512 81.1265 15.9316 81.5628 14.6172Z" fill="#DF19FF"/>
<path fill-rule="evenodd" clip-rule="evenodd" d="M80.3743 11.6192C80.8316 11.7816 81.3419 11.6496 81.6632 11.2857C81.9843 10.9217 82.0517 10.3989 81.8334 9.9654C80.7894 7.80645 78.5458 6.30469 75.9541 6.30469C73.3626 6.30469 71.1188 7.80645 70.0703 9.96304C69.8511 10.3986 69.9188 10.9236 70.2415 11.2892C70.5639 11.6548 71.0764 11.7873 71.5358 11.6241C72.8483 11.1829 74.368 10.8953 75.9541 10.8953C77.5405 10.8953 79.0599 11.1829 80.3743 11.6192Z" fill="#19FFBB"/>
<path fill-rule="evenodd" clip-rule="evenodd" d="M83.3709 10.4314C83.2083 10.8887 83.3403 11.3991 83.7042 11.7201C84.0682 12.0414 84.591 12.1088 85.0245 11.8903C87.1834 10.8465 88.6852 8.60297 88.6852 6.01125C88.6852 3.41952 87.1834 1.17595 85.0268 0.127475C84.5915 -0.0917434 84.0663 -0.0240926 83.7007 0.298606C83.3353 0.621069 83.2026 1.13352 83.3657 1.59294C83.8072 2.90542 84.0946 4.4251 84.0946 6.01125C84.0946 7.5974 83.8072 9.11707 83.3709 10.4314Z" fill="#6219FF"/>
<path fill-rule="evenodd" clip-rule="evenodd" d="M84.5594 13.4293C84.1021 13.2669 83.5918 13.3989 83.2707 13.7628C82.9497 14.1268 82.8823 14.6496 83.1006 15.0831C84.1443 17.242 86.3881 18.7438 88.9796 18.7438C91.5713 18.7438 93.8149 17.2421 94.8634 15.0855C95.0826 14.6499 95.015 14.1249 94.6925 13.7593C94.3698 13.3937 93.8573 13.2612 93.3979 13.4244C92.0854 13.8656 90.566 14.1532 88.9796 14.1532C87.3935 14.1532 85.8738 13.8656 84.5594 13.4293Z" fill="#FFBD00"/>
</svg>
